<!-- Generator: Adobe Illustrator 22.0.1, SVG Export Plug-In  -->
<svg version="1.1"
     xmlns="http://www.w3.org/2000/svg" xmlns:xlink="http://www.w3.org/1999/xlink" xmlns:a="http://ns.adobe.com/AdobeSVGViewerExtensions/3.0/"
     x="0px" y="0px" width="710px" height="111.1px" viewBox="0 0 710 111.1" style="enable-background:new 0 0 710 111.1;"
     xml:space="preserve">
<style type="text/css">
	.st0{fill:#16132D;}
	.st1{fill:#15132D;}
	.st2{fill:#363537;}
	.st3{fill:#F93608;}
	.st4{fill:none;stroke:#2F2F2F;stroke-miterlimit:10;}
</style>
    <defs>
</defs>
    <g>
	<path class="st0" d="M59.6,2h22.1c15.6,0,27.1,5.4,27.1,21.6c0,15.6-11.6,22.7-26.7,22.7H72v25.8H59.6V2z M81,36.4
		c10.5,0,15.4-4.2,15.4-12.8C96.5,15,91,12,80.6,12H72v24.4H81z"/>
        <polygon class="st0" points="119.2,2 131.7,2 131.7,61.7 160.8,61.7 160.8,72.2 119.2,72.2 	"/>
        <polygon class="st0" points="354,2 396.4,2 396.4,12.5 366.4,12.5 366.4,32.4 391.9,32.4 391.9,42.9 366.4,42.9 366.4,72.2
		354,72.2 	"/>
        <path class="st0" d="M407.2,37.5C407.2,15.2,418,2,433.6,2C449.2,2,460,15.2,460,37.5c0,22.3-10.8,36-26.4,36
		C418,73.5,407.2,59.8,407.2,37.5 M449,37.5c0-15.5-6.1-24.8-15.5-24.8c-9.4,0-15.5,9.4-15.5,24.8c0,15.5,6.1,25.4,15.5,25.4
		C443,62.8,449,52.9,449,37.5"/>
        <path class="st0" d="M471.4,2H495c14.6,0,25.8,5.1,25.8,20.8c0,15.1-11.2,21.9-25.8,21.9h-11.2v27.4h-12.4V2z M493.7,34.8
		c9.6,0,14.8-4,14.8-12c0-8.1-5.2-10.9-14.8-10.9h-9.9v22.8H493.7z M491.9,47.4l13.3-0.1l14.3,24.9h-14L491.9,47.4z"/>
        <path class="st0" d="M659.5,63.2l7.2-8.5c5,4.8,11.8,8,18.3,8c7.9,0,12.2-3.6,12.2-9c0-5.8-4.5-7.6-10.9-10.3l-9.6-4.2
		c-6.9-2.9-14.2-8.3-14.2-18.6c0-11.2,9.9-19.8,23.5-19.8c8.2,0,16.1,3.4,21.6,8.9l-6.4,7.9c-4.5-3.8-9.2-6-15.2-6
		c-6.6,0-11,3.1-11,8.2c0,5.5,5.3,7.5,11.2,9.9l9.5,4c8.3,3.5,14.2,8.7,14.2,18.9c0,11.4-9.4,20.8-25.2,20.8
		C675.3,73.5,666.2,69.7,659.5,63.2"/>
        <polygon class="st0" points="261.2,12.5 238.6,12.5 238.6,2 297.6,2 297.6,12.5 275,12.5 	"/>
        <rect x="258.9" y="15.2" class="st0" width="12.4" height="57"/>
        <polygon class="st0" points="296.6,2 339.1,2 339.1,12.5 296.6,12.5 	"/>
        <polygon class="st0" points="297.6,61.7 341.1,61.7 341.1,72.2 297.7,72.2 	"/>
        <rect x="297.6" y="30.4" class="st0" width="25.2" height="10.5"/>
        <polygon class="st0" points="559.3,31.4 566.4,21.6 580.7,2 581,16.6 559.3,46.8 	"/>
        <polygon class="st0" points="566.4,21.6 559.3,46.8 551.9,46.8 545.8,22.8 555.7,36.2 	"/>
        <polygon class="st0" points="580.7,2 592.5,2 592.5,72.2 581.1,72.2 	"/>
        <polygon class="st0" points="552.1,46.8 530.4,16.6 530.7,2 545,21.6 552.1,31.4 	"/>
        <polygon class="st0" points="604.8,2 647.2,2 647.2,12.5 604.7,12.5 	"/>
        <polygon class="st0" points="605,61.7 648.3,61.7 648.3,72.2 605.2,72.2 	"/>
        <rect x="605" y="30.4" class="st0" width="25.2" height="10.5"/>
        <polygon class="st1" points="65.8,87.6 59.1,87.6 59.1,85.4 75.3,85.4 75.3,87.6 68.6,87.6 68.6,105.9 65.8,105.9 	"/>
        <polygon class="st1" points="107.7,85.4 120.4,85.4 120.4,87.6 110.5,87.6 110.5,94 118.9,94 118.9,96.3 110.5,96.3 110.5,103.7
		120.8,103.7 120.8,105.9 107.7,105.9 	"/>
        <path class="st1" d="M152.7,95.7c0-6.6,4.2-10.6,9.8-10.6c2.7,0,4.8,1.2,6.1,2.5l-1.5,1.7c-1.2-1.2-2.6-1.9-4.5-1.9
		c-4.2,0-6.9,3.2-6.9,8.3c0,5.1,2.6,8.4,6.8,8.4c2.1,0,3.7-0.9,5.1-2.3l1.5,1.6c-1.7,1.9-3.9,3-6.8,3
		C156.8,106.3,152.7,102.3,152.7,95.7"/>
        <polygon class="st1" points="201.7,85.4 204.5,85.4 204.5,94 214.7,94 214.7,85.4 217.5,85.4 217.5,105.9 214.7,105.9 214.7,96.3
		204.5,96.3 204.5,105.9 201.7,105.9 	"/>
        <path class="st1" d="M252.1,85.4h2.9l8,12.9l2.4,4.2h0.1c-0.1-2.1-0.4-4.4-0.4-6.5V85.4h2.7v20.5h-2.9l-8-12.9l-2.4-4.2h-0.1
		c0.1,2.1,0.4,4.3,0.4,6.4v10.7h-2.7V85.4z"/>
        <path class="st1" d="M301.1,95.6c0-6.6,3.9-10.5,9.4-10.5c5.5,0,9.4,4,9.4,10.5c0,6.6-3.9,10.7-9.4,10.7
		C304.9,106.3,301.1,102.1,301.1,95.6 M317,95.6c0-5.1-2.6-8.2-6.5-8.2s-6.5,3.1-6.5,8.2c0,5.1,2.6,8.4,6.5,8.4S317,100.7,317,95.6"
        />
        <polygon class="st1" points="353.2,85.4 356,85.4 356,103.7 365.6,103.7 365.6,105.9 353.2,105.9 	"/>
        <path class="st1" d="M395.9,95.6c0-6.6,3.9-10.5,9.4-10.5c5.5,0,9.4,4,9.4,10.5c0,6.6-3.9,10.7-9.4,10.7
		C399.7,106.3,395.9,102.1,395.9,95.6 M411.8,95.6c0-5.1-2.6-8.2-6.5-8.2c-3.9,0-6.5,3.1-6.5,8.2c0,5.1,2.6,8.4,6.5,8.4
		C409.2,104,411.8,100.7,411.8,95.6"/>
        <path class="st1" d="M446.7,95.7c0-6.6,4.3-10.6,10.1-10.6c3,0,5.1,1.3,6.3,2.5l-1.5,1.7c-1.1-1.1-2.5-1.9-4.7-1.9
		c-4.4,0-7.3,3.2-7.3,8.3c0,5.1,2.6,8.4,7.3,8.4c1.6,0,3.1-0.4,4-1.2v-5.3h-4.7v-2.2h7.2v8.6c-1.4,1.4-3.8,2.4-6.8,2.4
		C450.8,106.3,446.7,102.3,446.7,95.7"/>
        <rect x="497.2" y="85.4" class="st1" width="2.8" height="20.5"/>
        <path class="st1" d="M533.3,95.6c0-6.6,3.9-10.5,9.4-10.5c5.5,0,9.4,4,9.4,10.5c0,6.6-3.9,10.7-9.4,10.7
		C537.2,106.3,533.3,102.1,533.3,95.6 M549.2,95.6c0-5.1-2.6-8.2-6.5-8.2c-3.9,0-6.5,3.1-6.5,8.2c0,5.2,2.6,8.5,6.5,8.5
		C546.6,104.1,549.2,100.8,549.2,95.6 M541.2,105.8l2.9-0.2c0.9,2.2,3,3.2,5.6,3.2c1,0,1.7-0.1,2.3-0.3l0.5,2
		c-0.7,0.2-1.8,0.5-3.1,0.5C545.2,111.1,542.4,108.8,541.2,105.8"/>
        <path class="st1" d="M585.3,97.4v-12h2.8v12.1c0,4.9,2.2,6.5,5.1,6.5c2.9,0,5.2-1.5,5.2-6.5V85.4h2.7v12c0,6.6-3.4,8.8-7.9,8.8
		S585.3,104,585.3,97.4"/>
        <polygon class="st1" points="635.6,85.4 648.3,85.4 648.3,87.6 638.4,87.6 638.4,94 646.7,94 646.7,96.3 638.4,96.3 638.4,103.7
		648.6,103.7 648.6,105.9 635.6,105.9 	"/>
        <path class="st1" d="M680.2,103.2l1.7-1.8c1.6,1.5,3.8,2.5,6.1,2.5c2.9,0,4.6-1.3,4.6-3.3c0-2.1-1.6-2.8-3.7-3.6l-3.2-1.3
		c-2.1-0.8-4.5-2.3-4.5-5.3c0-3.1,2.9-5.4,6.9-5.4c2.6,0,4.9,1.1,6.5,2.5l-1.5,1.7c-1.3-1.2-3-1.9-5-1.9c-2.5,0-4.1,1.2-4.1,3
		c0,2,1.9,2.7,3.6,3.4l3.1,1.3c2.5,1,4.5,2.4,4.5,5.5c0,3.2-2.9,5.8-7.5,5.8C684.8,106.3,682.1,105.1,680.2,103.2"/>
        <path class="st2" d="M0,92.2v-7.6h21.8c0,0,8-0.5,7.9-9.1c-0.1-10-7.8-10.1-7.8-10.1H0v-7.6h21.9c0,0,15.5,1.1,15.5,17.7
		c0,16.8-15.3,16.8-15.3,16.8H0z"/>
        <rect x="0" y="98.2" class="st2" width="37.4" height="7.7"/>
        <rect x="0.2" y="36.1" class="st2" width="37.4" height="7.7"/>

        <rect x="-11.5" y="34.2" transform="matrix(4.251811e-03 -1 1 4.251811e-03 -34.0306 41.7013)" class="st2" width="30.8" height="7.5"/>
        <rect x="0" y="3.4" class="st3" width="37.4" height="7.7"/>

        <rect x="-0.2" y="9.4" transform="matrix(4.324747e-03 -1 1 4.324747e-03 -9.3743 16.9638)" class="st3" width="8.1" height="7.6"/>
        <line class="st4" x1="46.2" y1="0" x2="46.2" y2="108.4"/>
        <polygon class="st1" points="171.2,56.1 183.9,56.1 202.9,24.1 221.8,56.1 233.8,56.1 202.5,1.2 	"/>
        <polygon class="st3" points="189.7,71.7 215.2,71.7 202.5,48.8 	"/>
</g>
</svg>