<svg xmlns="http://www.w3.org/2000/svg" viewBox="0 0 793.32 160.21"><defs><style>.cls-1{fill:#3d4059;}.cls-2{fill:#e84e0f;}.cls-3,.cls-5{fill:#2a2e46;}.cls-4{fill:#2e2e46;}.cls-5{stroke:#2a2e46;stroke-miterlimit:10;}</style></defs><title>logo</title><g id="Calque_2" data-name="Calque 2"><g id="Calque_7" data-name="Calque 7"><path class="cls-1" d="M210.89,24.37h4.62V37.6A5.19,5.19,0,0,0,221,42.43c6.07-.07,6.16-4.74,6.16-4.74V24.37h4.62V37.69s-.66,9.42-10.75,9.41-10.18-9.32-10.18-9.32Z"/><rect class="cls-1" x="201.53" y="24.37" width="4.68" height="22.73"/><rect class="cls-1" x="241.3" y="24.47" width="4.68" height="22.73"/><polygon class="cls-1" points="235.5 28.99 235.51 24.42 251.83 24.5 251.81 29.07 235.5 28.99"/><rect class="cls-2" x="266.15" y="24.37" width="4.68" height="22.73"/><rect class="cls-2" x="262.58" y="24.23" width="4.64" height="4.91" transform="translate(237.07 291.47) rotate(-89.75)"/><polygon class="cls-1" points="288.7 113.27 301.27 113.27 321.63 79.09 349.55 126.37 361.55 126.37 321.24 56.16 288.7 113.27"/><polygon class="cls-2" points="308.41 126.33 333.87 126.33 321.24 103.4 308.41 126.33"/><path class="cls-3" d="M201.53,56.21h22.09c15.56,0,27.1,5.4,27.1,21.61,0,15.64-11.58,22.73-26.68,22.73H214v25.78H201.53ZM223,90.6c10.47,0,15.44-4.16,15.44-12.78S233,66.16,222.59,66.16H214V90.6Z"/><polygon class="cls-3" points="258.93 56.21 271.36 56.21 271.36 115.86 300.49 115.86 300.49 126.33 258.93 126.33 258.93 56.21"/><polygon class="cls-3" points="455.21 56.21 497.58 56.21 497.58 66.67 467.65 66.67 467.65 86.57 493.12 86.57 493.12 97.04 467.65 97.04 467.65 126.33 455.21 126.33 455.21 56.21"/><path class="cls-3" d="M501.58,91c0-21.88,11.5-34.79,28.1-34.79s28.09,13,28.09,34.79-11.49,35.33-28.09,35.33-28.1-13.45-28.1-35.33m44.58,0c0-15.18-6.47-24.37-16.48-24.37S513.2,75.82,513.2,91s6.47,24.9,16.48,24.9,16.48-9.72,16.48-24.9"/><path class="cls-3" d="M566.2,56.21h23.63c14.59,0,25.82,5.14,25.82,20.8,0,15.07-11.23,21.91-25.82,21.91H578.64v27.41H566.2ZM588.55,89c9.6,0,14.84-4,14.84-12s-5.24-10.85-14.84-10.85h-9.91V89Zm-1.81,12.57,13.32-.15,14.32,24.94h-14Z"/><path class="cls-3" d="M744.54,116.49l7-8.26c4.85,4.63,11.36,7.74,17.67,7.74,7.63,0,11.82-3.46,11.82-8.75,0-5.58-4.38-7.37-10.54-10l-9.27-4c-6.68-2.78-13.7-8.07-13.7-18,0-10.81,9.54-19.12,22.77-19.12a29.69,29.69,0,0,1,20.9,8.65L785,72.4c-4.31-3.67-8.92-5.83-14.72-5.83-6.43,0-10.62,3-10.62,8,0,5.33,5.16,7.3,10.78,9.61L779.61,88c8.07,3.36,13.71,8.46,13.71,18.29,0,11-9.13,20.16-24.35,20.16a35,35,0,0,1-24.43-9.93"/><polygon class="cls-3" points="386.86 66.67 352.13 66.67 352.13 56.21 442.92 56.21 442.92 66.67 408.19 66.67 386.86 66.67"/><rect class="cls-3" x="373.48" y="69.27" width="12.44" height="57.06"/><polygon class="cls-3" points="674.49 56.21 686.28 56.21 686.28 126.33 674.88 126.33 674.49 56.21"/><polygon class="cls-3" points="623.49 56.21 635.28 56.21 635.28 126.33 623.88 126.33 623.49 56.21"/><polygon class="cls-3" points="623.93 56.21 636.44 56.21 655.29 88.19 673.95 56.21 685.88 56.21 654.9 111.11 623.93 56.21"/><rect class="cls-3" x="399.64" y="86.04" width="25.22" height="10.46"/><rect class="cls-4" x="399.64" y="115.87" width="43.27" height="10.46"/><rect class="cls-3" x="695.24" y="86.04" width="25.22" height="10.46"/><rect class="cls-3" x="695.24" y="115.87" width="42.2" height="10.46"/><path class="cls-2" d="M64.79,92.89,60.44,125a.33.33,0,0,0,.55.29l26.4-23.8a.33.33,0,0,0-.11-.55l-22-8.28A.32.32,0,0,0,64.79,92.89Z"/><path class="cls-5" d="M51.64,87.42,60.49,125a.11.11,0,0,0,.22,0l6.11-31.37a0,0,0,0,0,0,0L51.68,87.39S51.64,87.4,51.64,87.42Z"/><path class="cls-3" d="M204.4,0,.18,66.93a.27.27,0,0,0,0,.51l135.22,53.12a.27.27,0,0,0,.33-.12l69-120A.27.27,0,0,0,204.4,0Z"/><path class="cls-1" d="M204.67.09,66.58,93.87l68.81,26.69a.27.27,0,0,0,.33-.12l69-120A.25.25,0,0,0,204.67.09Z"/><path class="cls-1" d="M51.38,87.56,204.61.05a.25.25,0,0,0-.21,0L.18,66.93a.27.27,0,0,0,0,.51Z"/><path class="cls-3" d="M67,94.05l116.6-79.68S61.91,90.82,61.81,91.65,67,94.05,67,94.05Z"/><rect class="cls-3" x="695.24" y="56.21" width="42.51" height="10.46"/><path class="cls-3" d="M208.33,156.27h-2.07v-14.7h-4.73v-1.82h11.55v1.82h-4.75Z"/><path class="cls-3" d="M256.63,154.46v1.81H246V139.75H256.4v1.82H248v5.25h6.65v1.68H248v6Z"/><path class="cls-3" d="M300,150.72l1.89.42q-1.36,5.48-6.13,5.47a5.69,5.69,0,0,1-4.92-2.53,10.52,10.52,0,0,1-1.78-6.22,9.48,9.48,0,0,1,1.86-6.13,6.07,6.07,0,0,1,5-2.32q4.65,0,6,5.32l-1.95.38q-1.06-3.95-4-3.94a3.85,3.85,0,0,0-3.4,1.83,9.36,9.36,0,0,0-1.2,5.15,8.59,8.59,0,0,0,1.23,4.87,3.78,3.78,0,0,0,3.27,1.84C297.92,154.86,299.31,153.48,300,150.72Z"/><path class="cls-3" d="M346.83,156.27h-2.07v-7.86h-7.67v7.86H335V139.75h2.07v6.84h7.67v-6.84h2.07Z"/><path class="cls-3" d="M393.69,156.27h-2l-8.55-14.4,0,1.09c0,.41,0,.76,0,1v12.27h-1.67V139.75h2.59l8,13.47,0-1.15c0-.45,0-.85,0-1.2V139.75h1.63Z"/><path class="cls-3" d="M434.09,156.61a5.78,5.78,0,0,1-5-2.47,10.21,10.21,0,0,1-1.77-6.08,10,10,0,0,1,1.86-6.2,6.21,6.21,0,0,1,9.85,0,9.6,9.6,0,0,1,1.86,6.06,10.51,10.51,0,0,1-1.8,6.12A5.77,5.77,0,0,1,434.09,156.61Zm.05-1.68a3.82,3.82,0,0,0,3.39-2,9.61,9.61,0,0,0,1.22-5.09,8.41,8.41,0,0,0-1.27-5,3.91,3.91,0,0,0-3.36-1.78,3.83,3.83,0,0,0-3.36,1.92,9.18,9.18,0,0,0-1.25,5,8.82,8.82,0,0,0,1.26,5A3.87,3.87,0,0,0,434.14,154.93Z"/><path class="cls-3" d="M484.35,154.46v1.81H474.6V139.75h2.11v14.71Z"/><path class="cls-3" d="M522.44,156.61a5.75,5.75,0,0,1-5-2.47,10.14,10.14,0,0,1-1.78-6.08,10,10,0,0,1,1.86-6.2,6.21,6.21,0,0,1,9.85,0,9.6,9.6,0,0,1,1.86,6.06,10.51,10.51,0,0,1-1.8,6.12A5.77,5.77,0,0,1,522.44,156.61Zm0-1.68a3.82,3.82,0,0,0,3.39-2,9.61,9.61,0,0,0,1.22-5.09,8.49,8.49,0,0,0-1.26-5,3.94,3.94,0,0,0-3.36-1.78,3.83,3.83,0,0,0-3.37,1.92,9.18,9.18,0,0,0-1.25,5,8.82,8.82,0,0,0,1.26,5A3.87,3.87,0,0,0,522.49,154.93Z"/><path class="cls-3" d="M575.19,148v8.55h-1.27l-.57-2.07a5.17,5.17,0,0,1-4.54,2.18,6,6,0,0,1-5.09-2.46,9.77,9.77,0,0,1-1.81-6,10,10,0,0,1,1.92-6.26,6.25,6.25,0,0,1,5.23-2.51q4.56,0,6,4.8l-2,.47a4.41,4.41,0,0,0-1.59-2.68,4.31,4.31,0,0,0-2.54-.83,3.9,3.9,0,0,0-3.61,2,9.61,9.61,0,0,0-1.16,5,8.46,8.46,0,0,0,1.3,5,4.13,4.13,0,0,0,3.54,1.81,4,4,0,0,0,2.91-1.16,4.3,4.3,0,0,0,1.17-3.2c0-.25,0-.54,0-.89H569V148Z"/><path class="cls-3" d="M611.63,156.27h-2.07V139.75h2.07Z"/><path class="cls-3" d="M652.09,156.61a5.89,5.89,0,0,1-5-2.43,9.85,9.85,0,0,1-1.81-6.05,10,10,0,0,1,1.88-6.28,5.9,5.9,0,0,1,4.91-2.44,6.05,6.05,0,0,1,4.88,2.33,9.39,9.39,0,0,1,1.9,6.14,10.53,10.53,0,0,1-1.43,5.56,6.05,6.05,0,0,1-3.65,3v.23c0,1.21.73,1.81,2.2,1.81a11,11,0,0,0,1.9-.15V160a5.76,5.76,0,0,1-1.71.26,4.68,4.68,0,0,1-2.92-.8A3.68,3.68,0,0,1,652.09,156.61Zm0-1.68a3.8,3.8,0,0,0,3.39-2,9.52,9.52,0,0,0,1.23-5.09,8.48,8.48,0,0,0-1.27-5,3.91,3.91,0,0,0-3.36-1.78A3.83,3.83,0,0,0,648.7,143a9.09,9.09,0,0,0-1.25,5,8.82,8.82,0,0,0,1.26,5A3.86,3.86,0,0,0,652.07,154.93Z"/><path class="cls-3" d="M702,139.75h1.72v10.79q0,3.26-1.59,4.66a6.05,6.05,0,0,1-4.17,1.41,5.59,5.59,0,0,1-4.25-1.45,6.54,6.54,0,0,1-1.38-4.62V139.75h2.07v10.8a5.88,5.88,0,0,0,.45,2.71,2.67,2.67,0,0,0,1.35,1.16,5,5,0,0,0,1.9.38,3.91,3.91,0,0,0,2.91-1,4.49,4.49,0,0,0,1-3.24Z"/><path class="cls-3" d="M748.81,154.46v1.81H738.12V139.75h10.46v1.82h-8.39v5.25h6.66v1.68h-6.66v6Z"/><path class="cls-3" d="M780.46,151.9l1.86-.42a4.66,4.66,0,0,0,4.88,3.38,4.56,4.56,0,0,0,3-.83,2.77,2.77,0,0,0,1-2.23,2.1,2.1,0,0,0-.76-1.7,4.1,4.1,0,0,0-1.75-.89l-3.3-.82a8.11,8.11,0,0,1-2.1-.79,3.78,3.78,0,0,1-1.39-1.44,4.25,4.25,0,0,1-.57-2.21,4,4,0,0,1,1.56-3.31,6.31,6.31,0,0,1,4-1.23,5.69,5.69,0,0,1,5.92,4.08l-1.88.56a3.32,3.32,0,0,0-1.53-2.2,4.82,4.82,0,0,0-2.58-.74,4.3,4.3,0,0,0-2.42.71,2.34,2.34,0,0,0-1.06,2c0,1.22.9,2,2.69,2.48l3.09.72c2.82.68,4.24,2.2,4.24,4.57a4.56,4.56,0,0,1-1.6,3.56,6.48,6.48,0,0,1-4.48,1.42A6.55,6.55,0,0,1,780.46,151.9Z"/><path class="cls-3" d="M586.74,101.54a53,53,0,0,0,12.83-1.14l.71,1.36-4.52,6.31Z"/></g></g></svg>